<?xml version="1.0" standalone="no"?>
<!DOCTYPE svg PUBLIC "-//W3C//DTD SVG 20010904//EN"
 "http://www.w3.org/TR/2001/REC-SVG-20010904/DTD/svg10.dtd">
<svg version="1.0" xmlns="http://www.w3.org/2000/svg"
 width="930.000000pt" height="1280.000000pt" viewBox="0 0 930.000000 1280.000000"
 preserveAspectRatio="xMidYMid meet">
<metadata>
Created by potrace 1.15, written by Peter Selinger 2001-2017
</metadata>
<g transform="translate(0.000000,1280.000000) scale(0.100000,-0.100000)"
fill="#000000" stroke="none">
<path d="M1550 6400 l0 -4270 3100 0 3100 0 0 2982 0 2982 73 75 c65 69 819
850 1026 1064 64 65 82 90 73 99 -8 8 12 36 82 109 98 103 160 187 171 231 8
33 -17 83 -94 185 -88 117 -285 294 -310 279 -5 -4 -13 -1 -17 5 -4 8 -3 9 4
5 7 -4 12 -5 12 -2 0 2 -31 25 -69 50 -48 33 -79 46 -103 46 -50 0 -145 -65
-252 -172 -61 -61 -93 -85 -100 -78 -5 5 -13 10 -16 10 -4 0 -157 -155 -341
-345 l-334 -345 -680 680 -680 680 -2323 0 -2322 0 0 -4270z m7307 3383 c-3
-10 -5 -4 -5 12 0 17 2 24 5 18 2 -7 2 -21 0 -30z m-106 -270 c13 -16 12 -17
-3 -4 -10 7 -18 15 -18 17 0 8 8 3 21 -13z"/>
</g>
</svg>
